<?xml version="1.0" encoding="utf-8"?>
<!-- Generator: Adobe Illustrator 23.0.1, SVG Export Plug-In . SVG Version: 6.00 Build 0)  -->
<svg version="1.1" id="Capa_1" xmlns="http://www.w3.org/2000/svg" xmlns:xlink="http://www.w3.org/1999/xlink" x="0px" y="0px"
	 viewBox="0 0 1366 768" style="enable-background:new 0 0 1366 768;" xml:space="preserve">
<style type="text/css">
	.st0{fill:#0025BF;}
	.st1{fill:#0DB746;stroke:#000000;stroke-width:6;stroke-miterlimit:10;}
	.st2{fill:#FFF92E;stroke:#000000;stroke-width:6;stroke-miterlimit:10;}
</style>
<g>
	<g>
		<ellipse class="st0" cx="708.5" cy="359.5" rx="498.5" ry="263.5"/>
		<path d="M708.5,98C982.27,98,1205,215.31,1205,359.5S982.27,621,708.5,621S212,503.69,212,359.5S434.73,98,708.5,98 M708.5,94
			C432.08,94,208,212.87,208,359.5S432.08,625,708.5,625S1209,506.13,1209,359.5S984.92,94,708.5,94L708.5,94z"/>
	</g>
	<g>
		<path class="st1" d="M767.24,371H498.62c0.58,37.33,11.3,64.48,32.15,81.39c20.84,16.94,47.7,25.4,80.59,25.4
			c23.47,0,43.88-2.49,61.21-7.47c17.31-4.97,36.55-12.7,57.69-23.15l29.06,45.56c-48.15,26.39-98.64,39.58-151.48,39.58
			c-56.37,0-101.44-13.31-135.19-39.96C438.87,465.73,422,423.52,422,365.77c0-32.86,7.04-62.73,21.13-89.62
			c14.09-26.88,35.08-48.4,62.97-64.58c27.88-16.17,62.09-24.27,102.6-24.27c34.05,0,63.11,5.86,87.19,17.55
			c24.07,11.71,42.28,27.76,54.61,48.17c12.33,20.42,18.49,43.82,18.49,70.2L767.24,371z M532.93,244.17
			c-17.33,15.44-28.62,36.6-33.9,63.47h192v-2.98c0-27.88-7.49-48.78-22.46-62.73c-14.97-13.93-36.26-20.9-63.85-20.9
			C574.18,221.04,550.25,228.75,532.93,244.17z"/>
	</g>
	<g>
		<path class="st2" d="M1002,181.52c0,2.7-0.43,6.02-1.28,9.96s-2.07,7.94-3.64,11.98c-1.57,4.05-3.42,7.89-5.56,11.52
			c-2.14,3.63-4.49,6.48-7.06,8.56c-6.84,6.02-19.1,9.03-36.78,9.03c0-14.11-2.71-25.83-8.13-35.17c-2.57-4.36-7.2-8.04-13.9-11.05
			s-14.19-5.55-22.45-7.63c-8.27-2.08-16.61-3.58-25.02-4.51c-8.41-0.93-15.61-1.4-21.6-1.4c-13.69,0-26.87,0.21-39.56,0.62
			c-12.69,0.41-25.09,1.3-37.21,2.65c-12.12,1.35-24.38,3.22-36.78,5.6c-12.4,2.39-25.31,5.55-38.71,9.49
			c-10.26,3.11-20.96,6.8-32.08,11.05c-11.12,4.25-21.39,9.08-30.79,14.47c-9.41,5.4-17.54,11.31-24.38,17.74
			c-6.84,6.43-11.12,13.49-12.83,21.17c-0.57,5.81,1.85,12.45,7.27,19.92s12.76,14.73,22.03,21.79s19.96,13.49,32.08,19.3
			c12.12,5.81,24.74,10.06,37.85,12.76c2.28,0.62,7.56,1.97,15.83,4.05c8.27,2.08,17.18,4.25,26.73,6.54
			c9.55,2.28,18.39,4.41,26.52,6.38c8.13,1.97,13.33,3.16,15.61,3.58c64.44,12.04,112.27,26.3,143.5,42.8
			c31.22,16.5,46.83,36.68,46.83,60.54c0,7.68-2.35,15.3-7.06,22.88c-4.7,7.57-10.62,14.84-17.75,21.79
			c-7.13,6.95-14.83,13.33-23.1,19.14c-8.27,5.81-15.97,10.69-23.1,14.63c-8.27,4.77-17.68,9.7-28.23,14.78
			c-10.55,5.08-21.81,10.01-33.79,14.78c-11.98,4.77-24.38,9.23-37.21,13.38c-12.83,4.15-25.8,7.78-38.92,10.89
			c-12.83,3.11-26.3,5.97-40.42,8.56c-14.11,2.59-28.09,4.82-41.92,6.69c-13.83,1.87-27.09,3.37-39.78,4.51
			c-12.69,1.14-24.02,1.71-34,1.71c-7.41,0-17.04-0.78-28.87-2.33s-23.45-3.74-34.86-6.54c-11.41-2.8-21.17-6.12-29.3-9.96
			S508,580.23,508,575.87c0-2.7,0.5-6.02,1.5-9.96c1-3.94,2.42-7.78,4.28-11.52c1.85-3.74,3.99-6.9,6.42-9.49
			c2.42-2.59,5.2-3.89,8.34-3.89c5.7,0,11.62,0.67,17.75,2.02s13.4,2.85,21.81,4.51s18.39,3.16,29.94,4.51s25.59,2.02,42.13,2.02
			c17.11,0,34.86-1.3,53.25-3.89c18.39-2.59,36.43-6.07,54.1-10.43c17.68-4.36,34.57-9.34,50.68-14.94
			c16.11-5.6,30.58-11.41,43.41-17.43c5.99-2.91,12.62-6.28,19.89-10.12s14.04-8.04,20.32-12.61c6.27-4.57,11.55-9.44,15.83-14.63
			c4.28-5.19,6.42-10.58,6.42-16.19c0-7.89-7.98-15.46-23.95-22.72c-15.68-7.06-31.72-12.55-48.12-16.5
			c-16.4-3.94-31.01-7.06-43.84-9.34c-15.68-2.91-33.29-6.74-52.82-11.52c-19.53-4.77-40.99-10.48-64.37-17.12
			c-38.78-10.79-71.57-26.56-98.37-47.31c-26.8-20.75-40.2-45.75-40.2-75.01c-0.57-13.7,5.2-26.87,17.32-39.53
			c12.12-12.66,28.44-24.38,48.97-35.17c20.53-10.79,43.98-20.39,70.36-28.79c26.38-8.4,53.53-14.99,81.48-19.76
			c5.7-0.83,12.62-1.76,20.74-2.8c8.13-1.04,16.54-1.92,25.23-2.65c8.7-0.73,17.11-1.35,25.23-1.87c8.13-0.52,15.04-0.78,20.74-0.78
			c6.84,0,15.47,0.36,25.88,1.09c10.41,0.73,21.1,1.71,32.08,2.96s21.39,2.8,31.22,4.67c9.84,1.87,17.75,4.05,23.74,6.54
			c14.54,5.6,25.95,12.35,34.22,20.23S1002,174.05,1002,181.52z"/>
	</g>
</g>
</svg>
